<svg width="203" height="18" viewBox="0 0 203 18" fill="none" xmlns="http://www.w3.org/2000/svg">
<path d="M173.132 7H178.008V8.44962H174.581V11.2171H177.481V12.6667H174.581V15.5659H178.008V17.0155H173V7H173.132Z" fill="#00A4E0"/>
<path d="M198.504 8.44962H196V7H202.589V8.44962H200.085V17.0155H198.372L198.504 8.44962Z" fill="#00A4E0"/>
<path d="M191 7H192.713V17.0155H191V7Z" fill="#00A4E0"/>
<path d="M181.132 7H183.767C185.876 7 187.062 8.18604 187.062 9.89922C187.062 11.0853 186.403 12.0078 185.481 12.4031L187.853 16.8837H186.14L184.031 12.7984H182.581V16.8837H181L181.132 7ZM183.767 11.4806C184.822 11.4806 185.481 10.9535 185.481 9.89922C185.481 8.97674 184.953 8.44962 183.767 8.44962H182.713V11.4806H183.767Z" fill="#00A4E0"/>
<path d="M164 16.8839H166.767C168.876 16.8839 170.062 15.6979 170.062 13.9847C170.062 12.7986 169.5 11.4994 168.5 11.4994C168.5 11.4994 169.5 11.4994 169.5 9.99939C169.5 6.99939 166.767 6.99995 166.767 6.99995L165.581 7.00019V8.38391H166.767C166.767 8.38391 168 8.38391 168 9.99939C168 10.9994 166.767 11.0855 166.767 11.0855H165.581V7.00019L166.767 6.99995L164 7.00019V16.8839ZM166.767 12.6149C167.822 12.6149 168.481 12.9304 168.481 13.9847C168.481 14.9072 167.953 15.4343 166.767 15.4343H165.581V12.6149H166.767Z" fill="#00A4E0"/>
<path d="M71.0311 1.71327C71.0311 0.790792 70.5039 0.263672 69.5814 0.263672H63.1241C59.6977 0.263672 58.1163 1.71329 58.1163 5.27143V12.1241C58.1163 13.5737 57.4574 14.1009 56.0078 14.1009H47.7055C46.783 14.1009 46.2559 14.628 46.2559 15.5505C46.2559 16.3412 46.783 17.0001 47.7055 17.0001H56.1396C59.5659 17.0001 61.1473 15.5505 61.1473 11.9923V5.13964C61.1473 3.69002 61.6745 3.16289 63.1241 3.16289H69.5814C70.5039 3.16289 71.0311 2.63575 71.0311 1.71327Z" fill="black"/>
<path d="M19.7674 0.263672H5.00776C1.97675 0.263672 0 2.3722 0 5.27143V12.1241C0 15.1551 1.97675 17.1319 5.00776 17.1319H16.8682C17.9225 17.1319 18.845 16.0776 18.845 15.1551V11.7288C18.845 10.9381 18.186 10.2792 17.3953 10.2792C16.4729 10.2792 15.9457 10.8063 15.9457 11.7288V14.1009H5.00776C3.95349 14.1009 3.03101 13.0466 3.03101 12.1241V5.13964C3.03101 4.08537 4.08528 3.16289 5.00776 3.16289H19.7674C20.8217 3.16289 21.7442 4.21716 21.7442 5.13964V15.5505C21.7442 16.3412 22.2713 17.0001 23.1938 17.0001C23.9845 17.0001 24.6434 16.473 24.6434 15.5505V5.13964C24.6434 2.24041 22.6667 0.263672 19.7674 0.263672Z" fill="black"/>
<path d="M74.062 12.124C74.062 15.5504 75.5116 17.1318 79.0698 17.1318C85.1318 17.1318 91.1938 17.1318 97.2558 17.1318C98.1783 17.1318 98.7054 16.6046 98.7054 15.6822C98.7054 14.8915 98.1783 14.2325 97.2558 14.2325H79.0698C77.6202 14.2325 77.093 13.7054 77.093 12.2558V5.13953C77.093 3.68991 77.6202 3.16278 79.0698 3.16278H93.8295C95.2791 3.16278 95.8062 3.68991 95.8062 5.13953C95.8062 6.58914 95.2791 7.11627 93.8295 7.11627H81.4419C80.3876 7.11627 79.9922 7.64341 79.9922 8.56589C79.9922 9.48837 80.5194 10.0155 81.4419 10.0155H93.8295C97.2558 10.0155 98.8372 8.56587 98.8372 5.00774C98.8372 1.4496 97.3876 0 93.8295 0H79.0698C75.5116 0 74.062 1.4496 74.062 5.00774V12.124Z" fill="black"/>
<path d="M101.737 12.124C101.737 15.5504 103.186 17.1318 106.744 17.1318C112.806 17.1318 117.155 17.1318 123.349 17.1318C124.271 17.1318 124.799 16.6046 124.799 15.6821C124.799 14.8914 124.271 14.2325 123.349 14.2325H106.744C105.295 14.2325 104.768 13.7054 104.768 12.2558C104.768 9.88368 104.768 7.64337 104.768 5.40306C104.768 3.95345 105.295 3.42632 106.744 3.42632C112.806 3.42632 117.155 3.42632 123.349 3.42632C124.271 3.42632 124.799 2.8992 124.799 1.97672C124.799 1.18602 124.271 0.5271 123.349 0.5271H106.744C103.318 0.5271 101.737 1.97672 101.737 5.53486V12.124Z" fill="black"/>
<path d="M127.961 12.1241C127.961 15.5505 129.411 17.1318 132.969 17.1318H147.729C151.155 17.1318 152.736 15.6822 152.736 12.1241V5.13959C152.736 1.71324 151.287 0.131836 147.729 0.131836H132.969C129.543 0.131836 127.961 1.58145 127.961 5.13959V12.1241ZM132.969 14.1008C131.519 14.1008 130.992 13.5737 130.992 12.1241V5.13959C130.992 3.68998 131.519 3.16285 132.969 3.16285H147.729C149.178 3.16285 149.705 3.68998 149.705 5.13959C149.705 7.51169 149.705 9.75199 149.705 11.9923C149.705 13.4419 149.178 13.969 147.729 13.969H132.969V14.1008Z" fill="black"/>
<path d="M52.3176 1.71327C52.3176 0.790792 51.7905 0.263672 50.868 0.263672H44.4106C40.9843 0.263672 39.4029 1.71329 39.4029 5.27143V12.1241C39.4029 13.5737 38.744 14.1009 37.2944 14.1009H28.8602C27.9378 14.1009 27.4106 14.628 27.4106 15.5505C27.4106 16.3412 27.9378 17.0001 28.8602 17.0001H37.2944C40.7207 17.0001 42.3021 15.5505 42.3021 11.9923V5.13964C42.3021 3.69002 42.8293 3.16289 44.2789 3.16289H50.7362C51.7905 3.16289 52.3176 2.63575 52.3176 1.71327Z" fill="black"/>
</svg>
