<svg width="153" height="32" viewBox="0 0 153 32" fill="none" xmlns="http://www.w3.org/2000/svg">
<path d="M71.0311 1.71315C71.0311 0.79067 70.5039 0.26355 69.5814 0.26355H63.1241C59.6977 0.26355 58.1163 1.71317 58.1163 5.27131V12.124C58.1163 13.5736 57.4574 14.1008 56.0078 14.1008H47.7055C46.783 14.1008 46.2559 14.6279 46.2559 15.5504C46.2559 16.3411 46.783 17 47.7055 17H56.1396C59.5659 17 61.1473 15.5504 61.1473 11.9922V5.13951C61.1473 3.6899 61.6745 3.16277 63.1241 3.16277H69.5814C70.5039 3.16277 71.0311 2.63563 71.0311 1.71315Z" fill="black"/>
<path d="M19.7674 0.26355H5.00776C1.97675 0.26355 0 2.37208 0 5.27131V12.124C0 15.155 1.97675 17.1318 5.00776 17.1318H16.8682C17.9225 17.1318 18.845 16.0775 18.845 15.155V11.7287C18.845 10.938 18.186 10.279 17.3953 10.279C16.4729 10.279 15.9457 10.8062 15.9457 11.7287V14.1008H5.00776C3.95349 14.1008 3.03101 13.0465 3.03101 12.124V5.13951C3.03101 4.08525 4.08528 3.16277 5.00776 3.16277H19.7674C20.8217 3.16277 21.7442 4.21703 21.7442 5.13951V15.5504C21.7442 16.3411 22.2713 17 23.1938 17C23.9845 17 24.6434 16.4728 24.6434 15.5504V5.13951C24.6434 2.24029 22.6667 0.26355 19.7674 0.26355Z" fill="black"/>
<path d="M74.062 12.124C74.062 15.5504 75.5116 17.1318 79.0698 17.1318C85.1318 17.1318 91.1938 17.1318 97.2558 17.1318C98.1783 17.1318 98.7054 16.6046 98.7054 15.6822C98.7054 14.8915 98.1783 14.2325 97.2558 14.2325H79.0698C77.6202 14.2325 77.093 13.7054 77.093 12.2558V5.13953C77.093 3.68991 77.6202 3.16278 79.0698 3.16278H93.8295C95.2791 3.16278 95.8062 3.68991 95.8062 5.13953C95.8062 6.58914 95.2791 7.11627 93.8295 7.11627H81.4419C80.3876 7.11627 79.9922 7.64341 79.9922 8.56589C79.9922 9.48837 80.5194 10.0155 81.4419 10.0155H93.8295C97.2558 10.0155 98.8372 8.56587 98.8372 5.00774C98.8372 1.4496 97.3876 0 93.8295 0H79.0698C75.5116 0 74.062 1.4496 74.062 5.00774V12.124Z" fill="black"/>
<path d="M101.737 12.124C101.737 15.5504 103.186 17.1318 106.744 17.1318C112.806 17.1318 117.155 17.1318 123.349 17.1318C124.271 17.1318 124.799 16.6046 124.799 15.6821C124.799 14.8914 124.271 14.2325 123.349 14.2325H106.744C105.295 14.2325 104.768 13.7054 104.768 12.2558C104.768 9.88368 104.768 7.64337 104.768 5.40306C104.768 3.95345 105.295 3.42632 106.744 3.42632C112.806 3.42632 117.155 3.42632 123.349 3.42632C124.271 3.42632 124.799 2.8992 124.799 1.97672C124.799 1.18602 124.271 0.5271 123.349 0.5271H106.744C103.318 0.5271 101.737 1.97672 101.737 5.53486V12.124Z" fill="black"/>
<path d="M127.961 12.1241C127.961 15.5505 129.411 17.1318 132.969 17.1318H147.729C151.155 17.1318 152.736 15.6822 152.736 12.1241V5.13959C152.736 1.71324 151.287 0.131836 147.729 0.131836H132.969C129.543 0.131836 127.961 1.58145 127.961 5.13959V12.1241ZM132.969 14.1008C131.519 14.1008 130.992 13.5737 130.992 12.1241V5.13959C130.992 3.68998 131.519 3.16285 132.969 3.16285H147.729C149.178 3.16285 149.705 3.68998 149.705 5.13959C149.705 7.51169 149.705 9.75199 149.705 11.9923C149.705 13.4419 149.178 13.969 147.729 13.969H132.969V14.1008Z" fill="black"/>
<path d="M52.3176 1.71315C52.3176 0.79067 51.7905 0.26355 50.868 0.26355H44.4106C40.9843 0.26355 39.4029 1.71317 39.4029 5.27131V12.124C39.4029 13.5736 38.744 14.1008 37.2944 14.1008H28.8602C27.9378 14.1008 27.4106 14.6279 27.4106 15.5504C27.4106 16.3411 27.9378 17 28.8602 17H37.2944C40.7207 17 42.3021 15.5504 42.3021 11.9922V5.13951C42.3021 3.6899 42.8293 3.16277 44.2789 3.16277H50.7362C51.7905 3.16277 52.3176 2.63563 52.3176 1.71315Z" fill="black"/>
<path d="M123.132 21.1318H128.008V22.5815H124.581V25.3489H127.481V26.7985H124.581V29.6977H128.008V31.1473H123V21.1318H123.132Z" fill="#00A4E0"/>
<path d="M148.504 22.5815H146V21.1318H152.589V22.5815H150.085V31.1473H148.372L148.504 22.5815Z" fill="#00A4E0"/>
<path d="M141 21.1318H142.713V31.1473H141V21.1318Z" fill="#00A4E0"/>
<path d="M131.132 21.1318H133.767C135.876 21.1318 137.062 22.3179 137.062 24.0311C137.062 25.2171 136.403 26.1396 135.481 26.5349L137.853 31.0156H136.14L134.031 26.9303H132.581V31.0156H131L131.132 21.1318ZM133.767 25.6124C134.822 25.6124 135.481 25.0853 135.481 24.0311C135.481 23.1086 134.953 22.5815 133.767 22.5815H132.713V25.6124H133.767Z" fill="#00A4E0"/>
<path d="M114 31.0157H116.767C118.876 31.0157 120.062 29.8297 120.062 28.1165C120.062 26.9305 119.5 25.6312 118.5 25.6312C118.5 25.6312 119.5 25.6312 119.5 24.1312C119.5 21.1312 116.767 21.1318 116.767 21.1318L115.581 21.132V22.5157H116.767C116.767 22.5157 118 22.5157 118 24.1312C118 25.1312 116.767 25.2173 116.767 25.2173H115.581V21.132L116.767 21.1318L114 21.132V31.0157ZM116.767 26.7468C117.822 26.7468 118.481 27.0623 118.481 28.1165C118.481 29.039 117.953 29.5661 116.767 29.5661H115.581V26.7468H116.767Z" fill="#00A4E0"/>
</svg>
