<?xml version="1.0" encoding="utf-8"?>
<!-- Generator: Adobe Illustrator 19.0.0, SVG Export Plug-In . SVG Version: 6.00 Build 0)  -->
<svg version="1.1" id="asseco-logotype" xmlns="http://www.w3.org/2000/svg"  x="0px"
	 y="0px" width="290px" height="17px" viewBox="-163 150.3 219.9 12.9" style="enable-background:new -163 150.3 219.9 12.9;"
	 xml:space="preserve">
<style type="text/css">
	.st0{fill:#00A4E0;}
</style>
<g>
	<g>
		<path class="st0" d="M-33.3,162.4c-0.4,0.3-1.2,0.8-2.3,0.8c-2.3,0-3.8-1.7-3.8-3.9s1.6-3.9,3.8-3.9c1.1,0,1.8,0.4,2.3,0.7
			l-0.4,1.1c-0.4-0.2-1-0.6-1.9-0.6c-1.6,0-2.6,1.2-2.6,2.8s1.1,2.8,2.7,2.8c1,0,1.7-0.5,2-0.7L-33.3,162.4z"/>
		<path class="st0" d="M-31.1,155.5h3.7v1.1H-30v2.1h2.2v1.1H-30v2.2h2.6v1.1h-3.8V155.5z"/>
		<path class="st0" d="M-24.9,155.5h1.2l3.7,5.7v-5.7h1.1v7.5h-1.2l-3.7-5.6v5.6H-25L-24.9,155.5L-24.9,155.5z"/>
		<path class="st0" d="M-14.9,156.6h-1.9v-1.1h5v1.1h-1.9v6.5H-15L-14.9,156.6L-14.9,156.6z"/>
		<path class="st0" d="M-9.7,155.5h2c1.6,0,2.5,0.9,2.5,2.2c0,0.9-0.5,1.6-1.2,1.9l1.8,3.4h-1.3l-1.6-3.1h-1.1v3.1h-1.2L-9.7,155.5
			L-9.7,155.5z M-7.7,158.9c0.8,0,1.3-0.4,1.3-1.2c0-0.7-0.4-1.1-1.3-1.1h-0.8v2.3H-7.7z"/>
		<path class="st0" d="M-1.2,160.8L-2,163h-1.2l2.8-7.5h1.2l2.8,7.5H2.3l-0.8-2.2H-1.2z M0.2,156.8l-1.1,3h2.1L0.2,156.8z"/>
		<path class="st0" d="M5.5,155.5h1.2v6.5h2.6v1.1H5.5V155.5z"/>
		<path class="st0" d="M15.2,155.5h3.7v1.1h-2.6v2.1h2.2v1.1h-2.2v2.2H19v1.1h-3.8L15.2,155.5L15.2,155.5z"/>
		<path class="st0" d="M21.4,160.3v-4.8h1.2v4.8c0,1.1,0.6,1.8,1.7,1.8s1.7-0.7,1.7-1.8v-4.7h1.2v4.8c0,1.7-1.1,2.9-2.9,2.9
			C22.4,163.2,21.4,162,21.4,160.3z"/>
		<path class="st0" d="M29.8,155.5h2c1.6,0,2.5,0.9,2.5,2.2c0,0.9-0.5,1.6-1.2,1.9l1.8,3.4h-1.3l-1.6-3.1h-1.1v3.1h-1.2L29.8,155.5
			L29.8,155.5z M31.8,158.9c0.8,0,1.3-0.4,1.3-1.2c0-0.7-0.4-1.1-1.3-1.1H31v2.3H31.8z"/>
		<path class="st0" d="M40.4,155.4c2.3,0,3.8,1.7,3.8,3.9s-1.6,3.9-3.9,3.9s-3.8-1.7-3.8-3.9S38.1,155.4,40.4,155.4z M40.4,162
			c1.5,0,2.6-1.2,2.6-2.8s-1.1-2.8-2.6-2.8c-1.5,0-2.6,1.2-2.6,2.8C37.8,160.9,38.8,162,40.4,162z"/>
		<path class="st0" d="M46.5,155.5h2.2c1.4,0,2.4,0.9,2.4,2.3s-1.1,2.3-2.4,2.3h-1v3h-1.2V155.5z M48.6,159c0.8,0,1.3-0.5,1.3-1.3
			c0-0.7-0.6-1.2-1.3-1.2h-0.9v2.5H48.6z"/>
		<path class="st0" d="M53.2,155.5h3.7v1.1h-2.6v2.1h2.2v1.1h-2.2v2.2h2.6v1.1h-3.8L53.2,155.5L53.2,155.5z"/>
	</g>
	<g>
		<path id="XMLID_10_" d="M-109.1,151.4c0-0.7-0.4-1.1-1.1-1.1h-4.9c-2.6,0-3.8,1.1-3.8,3.8v5.2c0,1.1-0.5,1.5-1.6,1.5h-6.3
			c-0.7,0-1.1,0.4-1.1,1.1c0,0.6,0.4,1.1,1.1,1.1h6.4c2.6,0,3.8-1.1,3.8-3.8V154c0-1.1,0.4-1.5,1.5-1.5h4.9
			C-109.5,152.5-109.1,152.1-109.1,151.4L-109.1,151.4z"/>
		<path id="XMLID_9_" d="M-148,150.3h-11.2c-2.3,0-3.8,1.6-3.8,3.8v5.2c0,2.3,1.5,3.8,3.8,3.8h9c0.8,0,1.5-0.8,1.5-1.5v-2.6
			c0-0.6-0.5-1.1-1.1-1.1c-0.7,0-1.1,0.4-1.1,1.1v1.8h-8.3c-0.8,0-1.5-0.8-1.5-1.5V154c0-0.8,0.8-1.5,1.5-1.5h11.2
			c0.8,0,1.5,0.8,1.5,1.5v7.9c0,0.6,0.4,1.1,1.1,1.1c0.6,0,1.1-0.4,1.1-1.1V154C-144.3,151.8-145.8,150.3-148,150.3L-148,150.3z"/>
		<path id="XMLID_8_" d="M-106.8,159.3c0,2.6,1.1,3.8,3.8,3.8c4.6,0,9.2,0,13.8,0c0.7,0,1.1-0.4,1.1-1.1c0-0.6-0.4-1.1-1.1-1.1
			h-13.8c-1.1,0-1.5-0.4-1.5-1.5V154c0-1.1,0.4-1.5,1.5-1.5h11.2c1.1,0,1.5,0.4,1.5,1.5c0,1.1-0.4,1.5-1.5,1.5h-9.4
			c-0.8,0-1.1,0.4-1.1,1.1c0,0.7,0.4,1.1,1.1,1.1h9.4c2.6,0,3.8-1.1,3.8-3.8s-1.1-3.8-3.8-3.8h-11.2c-2.7,0-3.8,1.1-3.8,3.8V159.3
			L-106.8,159.3z"/>
		<path id="XMLID_7_" d="M-85.8,159.3c0,2.6,1.1,3.8,3.8,3.8c4.6,0,7.9,0,12.6,0c0.7,0,1.1-0.4,1.1-1.1c0-0.6-0.4-1.1-1.1-1.1h-12.6
			c-1.1,0-1.5-0.4-1.5-1.5c0-1.8,0-3.5,0-5.2c0-1.1,0.4-1.5,1.5-1.5c4.6,0,7.9,0,12.6,0c0.7,0,1.1-0.4,1.1-1.1
			c0-0.6-0.4-1.1-1.1-1.1h-12.6c-2.6,0-3.8,1.1-3.8,3.8L-85.8,159.3C-85.9,159.3-85.8,159.3-85.8,159.3z"/>
		<path id="XMLID_4_" d="M-65.9,159.3c0,2.6,1.1,3.8,3.8,3.8h11.2c2.6,0,3.8-1.1,3.8-3.8V154c0-2.6-1.1-3.8-3.8-3.8h-11.2
			c-2.6,0-3.8,1.1-3.8,3.8V159.3L-65.9,159.3z M-62.1,160.8c-1.1,0-1.5-0.4-1.5-1.5V154c0-1.1,0.4-1.5,1.5-1.5h11.2
			c1.1,0,1.5,0.4,1.5,1.5c0,1.8,0,3.5,0,5.2c0,1.1-0.4,1.5-1.5,1.5H-62.1L-62.1,160.8z"/>
		<path id="XMLID_3_" d="M-123.3,151.4c0-0.7-0.4-1.1-1.1-1.1h-4.9c-2.6,0-3.8,1.1-3.8,3.8v5.2c0,1.1-0.5,1.5-1.6,1.5h-6.4
			c-0.7,0-1.1,0.4-1.1,1.1c0,0.6,0.4,1.1,1.1,1.1h6.4c2.6,0,3.8-1.1,3.8-3.8V154c0-1.1,0.4-1.5,1.5-1.5h4.9
			C-123.7,152.5-123.3,152.1-123.3,151.4L-123.3,151.4z"/>
	</g>
</g>
</svg>
