<svg width="204" height="19" viewBox="0 0 204 19" fill="none" xmlns="http://www.w3.org/2000/svg">
<path d="M189.4 16.7C188.5 17.4 186.5 18.6 183.7 18.6C178.2 18.6 174.4 14.6 174.4 9.3C174.4 4 178.4 0 183.6 0C186.1 0 188 1 189.1 1.8L188.3 4.3C187.5 3.7 185.9 2.7 183.8 2.7C180 2.7 177.4 5.6 177.4 9.4C177.4 13.2 179.9 16.1 183.8 16.1C186.1 16.1 187.8 14.9 188.5 14.4L189.4 16.7Z" fill="#00A4E0"/>
<path d="M194.7 0.199951H203.6V2.79995H197.6V7.79995H202.9V10.3H197.6V15.6H203.9V18.2H194.7V0.199951Z" fill="#00A4E0"/>
<path d="M76 1.79995C76 0.799951 75.4 0.199951 74.4 0.199951H67.5C63.8 0.199951 62.2 1.79995 62.2 5.49995V12.9C62.2 14.4 61.5 15 60 15H51.1C50.1 15 49.5 15.6 49.5 16.6C49.5 17.5 50.1 18.2 51.1 18.2H60.1C63.8 18.2 65.4 16.6 65.4 12.9V5.49995C65.4 3.89995 66 3.39995 67.5 3.39995H74.4C75.5 3.39995 76 2.79995 76 1.79995Z" fill="black"/>
<path d="M21.1 0.199951H5.3C2.1 0.199951 0 2.29995 0 5.49995V12.9C0 16.1 2.1 18.2 5.3 18.2H18C19.1 18.2 20.1 17.1 20.1 16.1V12.4C20.1 11.5 19.4 10.8 18.6 10.8C17.6 10.8 17 11.4 17 12.4V15H5.3C4.2 15 3.2 13.9 3.2 12.9V5.49995C3.2 4.39995 4.3 3.39995 5.3 3.39995H21.1C22.2 3.39995 23.2 4.49995 23.2 5.49995V16.6C23.2 17.4 23.8 18.2 24.8 18.2C25.7 18.2 26.4 17.7 26.4 16.6V5.49995C26.4 2.29995 24.3 0.199951 21.1 0.199951Z" fill="black"/>
<path d="M79.2002 12.9C79.2002 16.6 80.8002 18.2 84.5002 18.2C91.0002 18.2 97.5002 18.2 104 18.2C105 18.2 105.6 17.6 105.6 16.6C105.6 15.7 105 15 104 15H84.5002C82.9002 15 82.4002 14.4 82.4002 12.9V5.49995C82.4002 3.89995 83.0002 3.39995 84.5002 3.39995H100.3C101.8 3.39995 102.4 3.99995 102.4 5.49995C102.4 7.09995 101.8 7.59995 100.3 7.59995H87.1002C86.0002 7.59995 85.5002 8.09995 85.5002 9.19995C85.5002 10.2 86.0002 10.8 87.1002 10.8H100.3C104 10.8 105.6 9.19995 105.6 5.49995C105.6 1.79995 104 0.199951 100.3 0.199951H84.5002C80.7002 0.199951 79.2002 1.79995 79.2002 5.49995V12.9Z" fill="black"/>
<path d="M108.8 12.9C108.8 16.6 110.4 18.2 114.1 18.2C120.6 18.2 125.3 18.2 131.8 18.2C132.8 18.2 133.4 17.6 133.4 16.6C133.4 15.7 132.8 15 131.8 15H114C112.4 15 111.9 14.4 111.9 12.9C111.9 10.4 111.9 7.99995 111.9 5.49995C111.9 3.99995 112.4 3.39995 114 3.39995C120.5 3.39995 125.2 3.39995 131.7 3.39995C132.7 3.39995 133.3 2.79995 133.3 1.79995C133.3 0.899951 132.7 0.199951 131.7 0.199951H114C110.3 0.199951 108.7 1.79995 108.7 5.49995V12.9H108.8Z" fill="black"/>
<path d="M136.9 12.9C136.9 16.6 138.5 18.2 142.2 18.2H158C161.7 18.2 163.3 16.6 163.3 12.9V5.49995C163.3 1.79995 161.7 0.199951 158 0.199951H142.2C138.5 0.199951 136.9 1.79995 136.9 5.49995V12.9ZM142.2 15C140.6 15 140.1 14.4 140.1 12.9V5.49995C140.1 3.99995 140.6 3.39995 142.2 3.39995H158C159.6 3.39995 160.1 3.99995 160.1 5.49995C160.1 7.99995 160.1 10.4 160.1 12.9C160.1 14.4 159.6 15 158 15H142.2Z" fill="black"/>
<path d="M56 1.79995C56 0.799951 55.4 0.199951 54.4 0.199951H47.5C43.8 0.199951 42.2 1.79995 42.2 5.49995V12.9C42.2 14.4 41.5 15 40 15H31C30 15 29.5 15.6 29.5 16.6C29.5 17.5 30.1 18.2 31 18.2H40C43.7 18.2 45.3 16.6 45.3 12.9V5.49995C45.3 3.89995 45.9 3.39995 47.4 3.39995H54.3C55.4 3.39995 56 2.79995 56 1.79995Z" fill="black"/>
</svg>
