<svg width="160" height="18" viewBox="0 0 160 18" fill="none" xmlns="http://www.w3.org/2000/svg">
<path fill-rule="evenodd" clip-rule="evenodd" d="M74.5131 1.55322C74.5077 0.596639 73.9646 0.00341797 72.9582 0.00341797H66.2322C62.6162 0.00341797 61.0557 1.54945 61.0557 5.17804V12.4223C61.0557 13.8525 60.4162 14.4917 58.9451 14.4917H50.1919C49.2568 14.4917 48.6387 15.094 48.6387 16.056C48.6387 16.982 49.2335 17.5951 50.1705 17.5951H58.9451C62.5447 17.5951 64.1604 16.0456 64.1604 12.4223V5.17804C64.1604 3.63706 64.718 3.10996 66.2322 3.10996H72.9582C73.9661 3.10996 74.5077 2.50257 74.5131 1.55322Z" fill="white"/>
<path fill-rule="evenodd" clip-rule="evenodd" d="M20.6963 0L5.17274 0.00346361C2.06966 0.00346361 0 2.07344 0 5.17809V12.4224C0 15.5289 2.06966 17.5954 5.17274 17.5917H17.5917C18.6266 17.5954 19.6597 16.562 19.6597 15.5289L19.6579 11.9057C19.6597 11.0099 18.9935 10.3546 18.1405 10.3546C17.1748 10.3546 16.5567 10.962 16.5567 11.9057V14.4924H5.17274C4.13775 14.4924 3.10276 13.4574 3.10276 12.4224V5.17809C3.10276 4.1431 4.13775 3.11 5.17274 3.10654L20.6963 3.11C21.7332 3.11 22.7679 4.1431 22.7679 5.17809V16.0456C22.7679 16.8615 23.3897 17.5954 24.3195 17.5954C25.1993 17.5954 25.8709 17.102 25.8709 16.0456V5.17809C25.8709 2.07344 23.8028 0.00346361 20.6963 0Z" fill="white"/>
<path fill-rule="evenodd" clip-rule="evenodd" d="M77.616 12.4224C77.616 16.0459 79.1353 17.5954 82.7907 17.5954H101.932C102.869 17.5954 103.487 16.9934 103.487 16.0352C103.487 15.1089 102.89 14.4927 101.951 14.4927H82.7904C81.2368 14.4675 80.7191 13.9369 80.7191 12.4227V5.1781C80.7191 3.63018 81.2815 3.11001 82.7904 3.11001H98.312C99.773 3.11001 100.382 3.65191 100.382 5.1781C100.382 6.72948 99.8404 7.2465 98.312 7.2465H85.389C84.3471 7.2465 83.836 7.77013 83.836 8.79945C83.836 9.79319 84.3631 10.3546 85.389 10.3546H98.312C101.978 10.3546 103.487 8.79945 103.487 5.1781C103.487 1.55674 101.928 0.00378418 98.312 0.00378418H82.7904C79.0711 0.00378418 77.6157 1.55485 77.6157 5.1781V12.4224H77.616Z" fill="white"/>
<path fill-rule="evenodd" clip-rule="evenodd" d="M106.592 12.4224C106.592 16.0459 108.113 17.5954 111.767 17.5954H129.158C130.093 17.5954 130.712 16.9934 130.712 16.0352C130.712 15.1089 130.172 14.4927 129.178 14.4927H111.767C110.215 14.4675 109.695 13.9369 109.695 12.4227V5.1781C109.695 3.66576 110.215 3.13142 111.767 3.11001H129.137C130.074 3.11001 130.692 2.51332 130.692 1.55674C130.692 0.627233 130.093 0.00378418 129.156 0.00378418H111.766C108.112 0.00378418 106.591 1.55328 106.591 5.1781V12.4224H106.592Z" fill="white"/>
<path fill-rule="evenodd" clip-rule="evenodd" d="M134.131 12.3962C134.131 16.0207 135.654 17.5954 139.304 17.5954H154.826C158.479 17.5954 160.001 16.0207 160.001 12.3962V5.15317C160.001 1.53181 158.479 0.00341797 154.826 0.00341797H139.304C135.654 0.00341797 134.131 1.53181 134.131 5.15317V12.3962ZM139.304 14.4888C137.752 14.4674 137.234 13.906 137.234 12.3962V5.15317C137.234 3.64052 137.753 3.13137 139.304 3.11027H154.826C156.377 3.13137 156.897 3.66571 156.897 5.17836V12.3959C156.897 13.906 156.377 14.4671 154.826 14.492L139.304 14.4888Z" fill="white"/>
<path fill-rule="evenodd" clip-rule="evenodd" d="M54.8465 1.55322C54.8411 0.596639 54.298 0.00341797 53.2898 0.00341797H46.5638C42.9478 0.00341797 41.3872 1.54945 41.3872 5.17804V12.4223C41.3872 13.8525 40.7496 14.4917 39.2782 14.4917H30.4646C29.5313 14.4917 28.9702 15.094 28.9702 16.056C28.9702 16.982 29.5313 17.5951 30.4646 17.5951H39.2782C42.8766 17.5951 44.4938 16.0456 44.4938 12.4223V5.17804C44.4938 3.63706 45.0514 3.10996 46.5638 3.10996H53.2898C54.3015 3.10996 54.8411 2.50257 54.8465 1.55322Z" fill="white"/>
</svg>
