<svg width="24" height="24" viewBox="0 0 24 24" fill="none" xmlns="http://www.w3.org/2000/svg">
<path d="M19.8465 6.88941L16.3581 3.16392C16.2601 3.05909 16.1271 3.00013 15.9884 3H9.01163C8.68782 3 8.37727 3.13738 8.1483 3.38191C7.91933 3.62644 7.7907 3.9581 7.7907 4.30392V5.98039H6.22093C5.89712 5.98039 5.58657 6.11777 5.3576 6.3623C5.12863 6.60683 5 6.93849 5 7.28431V20.6961C5 21.0419 5.12863 21.3736 5.3576 21.6181C5.58657 21.8626 5.89712 22 6.22093 22H15.9884C16.3122 22 16.6227 21.8626 16.8517 21.6181C17.0807 21.3736 17.2093 21.0419 17.2093 20.6961V19.0196H18.7791C19.1029 19.0196 19.4134 18.8822 19.6424 18.6377C19.8714 18.3932 20 18.0615 20 17.7157V7.28431C19.9999 7.13615 19.9447 6.99411 19.8465 6.88941ZM16.1628 20.6961C16.1628 20.7455 16.1444 20.7929 16.1117 20.8278C16.079 20.8627 16.0346 20.8824 15.9884 20.8824H6.22093C6.17467 20.8824 6.13031 20.8627 6.0976 20.8278C6.06489 20.7929 6.04651 20.7455 6.04651 20.6961V7.28431C6.04651 7.23491 6.06489 7.18753 6.0976 7.1526C6.13031 7.11766 6.17467 7.09804 6.22093 7.09804H12.9805L16.1628 10.4966V20.6961ZM18.9535 17.7157C18.9535 17.7651 18.9351 17.8125 18.9024 17.8474C18.8697 17.8823 18.8253 17.902 18.7791 17.902H17.2093V10.2647C17.2092 10.1165 17.154 9.9745 17.0558 9.8698L13.5674 6.14431C13.4694 6.03948 13.3364 5.98052 13.1977 5.98039H8.83721V4.30392C8.83721 4.25452 8.85559 4.20714 8.8883 4.17221C8.921 4.13727 8.96537 4.11765 9.01163 4.11765H15.7712L18.9535 7.51623V17.7157ZM13.7209 14.7353C13.7209 14.8835 13.6658 15.0256 13.5677 15.1304C13.4695 15.2352 13.3365 15.2941 13.1977 15.2941H9.01163C8.87285 15.2941 8.73976 15.2352 8.64163 15.1304C8.5435 15.0256 8.48837 14.8835 8.48837 14.7353C8.48837 14.5871 8.5435 14.4449 8.64163 14.3401C8.73976 14.2353 8.87285 14.1765 9.01163 14.1765H13.1977C13.3365 14.1765 13.4695 14.2353 13.5677 14.3401C13.6658 14.4449 13.7209 14.5871 13.7209 14.7353ZM13.7209 17.7157C13.7209 17.8639 13.6658 18.006 13.5677 18.1108C13.4695 18.2156 13.3365 18.2745 13.1977 18.2745H9.01163C8.87285 18.2745 8.73976 18.2156 8.64163 18.1108C8.5435 18.006 8.48837 17.8639 8.48837 17.7157C8.48837 17.5675 8.5435 17.4253 8.64163 17.3205C8.73976 17.2157 8.87285 17.1569 9.01163 17.1569H13.1977C13.3365 17.1569 13.4695 17.2157 13.5677 17.3205C13.6658 17.4253 13.7209 17.5675 13.7209 17.7157Z" fill="black"/>
</svg>
