<svg width="24" height="25" viewBox="0 0 24 25" fill="none" xmlns="http://www.w3.org/2000/svg">
<path d="M16.017 2.32263H7.947C6.37015 2.32448 4.85844 2.95177 3.74353 4.06687C2.62862 5.18196 2.00159 6.69378 2 8.27063L2 16.3406C2.00185 17.9175 2.62914 19.4292 3.74424 20.5441C4.85933 21.659 6.37115 22.286 7.948 22.2876H16.018C17.5948 22.2858 19.1066 21.6585 20.2215 20.5434C21.3364 19.4283 21.9634 17.9165 21.965 16.3396V8.26963C21.9631 6.69279 21.3359 5.18107 20.2208 4.06616C19.1057 2.95125 17.5938 2.32422 16.017 2.32263V2.32263ZM19.957 16.3396C19.957 16.857 19.8551 17.3694 19.6571 17.8474C19.4591 18.3254 19.1689 18.7598 18.803 19.1256C18.4371 19.4915 18.0028 19.7817 17.5248 19.9797C17.0468 20.1777 16.5344 20.2796 16.017 20.2796H7.947C6.90222 20.2794 5.90032 19.8641 5.16165 19.1253C4.42297 18.3864 4.008 17.3844 4.008 16.3396V8.26963C4.00827 7.22485 4.42349 6.22295 5.16235 5.48428C5.90122 4.7456 6.90322 4.33063 7.948 4.33063H16.018C17.0628 4.3309 18.0647 4.74612 18.8034 5.48498C19.542 6.22385 19.957 7.22585 19.957 8.27063V16.3406V16.3396Z" fill="white"/>
<path d="M11.982 7.1416C10.6134 7.14372 9.30154 7.68839 8.33391 8.65621C7.36627 9.62403 6.82186 10.936 6.82001 12.3046C6.82159 13.6735 7.36603 14.9859 8.33391 15.954C9.30179 16.9221 10.6141 17.4667 11.983 17.4686C13.3521 17.467 14.6647 16.9224 15.6328 15.9543C16.6008 14.9863 17.1454 13.6737 17.147 12.3046C17.1449 10.9357 16.5999 9.62349 15.6317 8.6558C14.6634 7.68811 13.3509 7.14392 11.982 7.1426V7.1416ZM11.982 15.4606C11.1452 15.4606 10.3428 15.1282 9.75109 14.5365C9.15941 13.9448 8.82701 13.1424 8.82701 12.3056C8.82701 11.4688 9.15941 10.6664 9.75109 10.0747C10.3428 9.483 11.1452 9.1506 11.982 9.1506C12.8188 9.1506 13.6213 9.483 14.2129 10.0747C14.8046 10.6664 15.137 11.4688 15.137 12.3056C15.137 13.1424 14.8046 13.9448 14.2129 14.5365C13.6213 15.1282 12.8188 15.4606 11.982 15.4606Z" fill="white"/>
<path d="M17.156 8.4176C17.8392 8.4176 18.393 7.86378 18.393 7.1806C18.393 6.49743 17.8392 5.9436 17.156 5.9436C16.4728 5.9436 15.919 6.49743 15.919 7.1806C15.919 7.86378 16.4728 8.4176 17.156 8.4176Z" fill="white"/>
</svg>
