<svg width="24" height="25" viewBox="0 0 24 25" fill="none" xmlns="http://www.w3.org/2000/svg">
<path d="M21.959 14.0416V21.4206H17.681V14.5356C17.681 12.8056 17.062 11.6256 15.514 11.6256C14.332 11.6256 13.628 12.4216 13.319 13.1906C13.206 13.4656 13.177 13.8486 13.177 14.2336V21.4206H8.897C8.897 21.4206 8.955 9.76063 8.897 8.55163H13.177V10.3756L13.149 10.4176H13.177V10.3756C13.745 9.50063 14.76 8.24963 17.033 8.24963C19.848 8.24963 21.959 10.0896 21.959 14.0416ZM4.421 2.34863C2.958 2.34863 2 3.30863 2 4.57163C2 5.80663 2.93 6.79563 4.365 6.79563H4.393C5.886 6.79563 6.813 5.80663 6.813 4.57163C6.787 3.30863 5.887 2.34863 4.422 2.34863H4.421ZM2.254 21.4206H6.532V8.55163H2.254V21.4206Z" fill="white"/>
</svg>
