<svg width="18" height="24" viewBox="0 0 18 24" fill="none" xmlns="http://www.w3.org/2000/svg">
<path d="M4.84081 12.084C4.98834 12.0211 5.147 11.9883 5.3074 11.9877C5.4678 11.9872 5.62669 12.0187 5.77468 12.0806C5.92266 12.1425 6.05674 12.2334 6.16899 12.348C6.28123 12.4626 6.36937 12.5985 6.42818 12.7478C6.48699 12.897 6.51528 13.0565 6.51139 13.2169C6.50749 13.3772 6.47149 13.5352 6.40551 13.6814C6.33952 13.8276 6.2449 13.9591 6.12723 14.0681C6.00955 14.1771 5.87122 14.2614 5.72041 14.316C4.91826 14.6321 4.2298 15.1822 3.74461 15.8949C3.25942 16.6076 2.99997 17.4498 3.00001 18.312V20.4C3.00001 20.7183 3.12643 21.0235 3.35148 21.2485C3.57652 21.4736 3.88175 21.6 4.20001 21.6H13.8C14.1183 21.6 14.4235 21.4736 14.6485 21.2485C14.8736 21.0235 15 20.7183 15 20.4V18.4236C15.0001 17.5338 14.7298 16.6649 14.2249 15.9322C13.72 15.1995 13.0044 14.6375 12.1728 14.3208C12.0211 14.2681 11.8814 14.1855 11.7622 14.0779C11.6429 13.9703 11.5465 13.8398 11.4786 13.6942C11.4108 13.5487 11.3728 13.3909 11.367 13.2304C11.3612 13.0699 11.3877 12.9098 11.4449 12.7597C11.5021 12.6096 11.5889 12.4725 11.7001 12.3566C11.8112 12.2407 11.9445 12.1482 12.0921 12.0848C12.2397 12.0213 12.3985 11.9881 12.5591 11.9871C12.7197 11.9862 12.8789 12.0175 13.0272 12.0792C14.3131 12.569 15.4199 13.438 16.2008 14.571C16.9817 15.704 17.3999 17.0475 17.4 18.4236V20.4C17.4 21.3548 17.0207 22.2705 16.3456 22.9456C15.6705 23.6207 14.7548 24 13.8 24H4.20001C3.24523 24 2.32955 23.6207 1.65442 22.9456C0.979291 22.2705 0.600006 21.3548 0.600006 20.4L0.600006 18.312C0.600171 16.9682 1.00474 15.6555 1.76108 14.5448C2.51742 13.434 3.59053 12.5766 4.84081 12.084ZM9.00001 0C10.273 0 11.4939 0.505713 12.3941 1.40589C13.2943 2.30606 13.8 3.52696 13.8 4.8V7.2C13.8 8.47304 13.2943 9.69394 12.3941 10.5941C11.4939 11.4943 10.273 12 9.00001 12C7.72697 12 6.50607 11.4943 5.60589 10.5941C4.70572 9.69394 4.20001 8.47304 4.20001 7.2V4.8C4.20001 3.52696 4.70572 2.30606 5.60589 1.40589C6.50607 0.505713 7.72697 0 9.00001 0V0ZM9.00001 2.4C8.36349 2.4 7.75304 2.65286 7.30295 3.10294C6.85286 3.55303 6.60001 4.16348 6.60001 4.8V7.2C6.60001 7.83652 6.85286 8.44697 7.30295 8.89706C7.75304 9.34714 8.36349 9.6 9.00001 9.6C9.63653 9.6 10.247 9.34714 10.6971 8.89706C11.1471 8.44697 11.4 7.83652 11.4 7.2V4.8C11.4 4.16348 11.1471 3.55303 10.6971 3.10294C10.247 2.65286 9.63653 2.4 9.00001 2.4Z" fill="white"/>
</svg>
