<svg width="21" height="24" viewBox="0 0 21 24" fill="none" xmlns="http://www.w3.org/2000/svg">
<path d="M3.99012 16.8174C4.35748 16.8174 4.67215 16.5951 4.9333 16.1498C7.32259 11.913 8.56547 9.70769 8.66249 9.53297L6.28297 5.38346C6.03136 4.94816 5.71208 4.73047 5.3254 4.73047H1.85733C1.63449 4.73047 1.48016 4.80302 1.39295 4.94812C1.28644 5.09322 1.29132 5.27228 1.40738 5.48478L3.74339 9.53297C3.75289 9.54327 3.75289 9.54767 3.74339 9.54767L0.0723273 16.0484C-0.0241091 16.2326 -0.0241091 16.4065 0.0723273 16.5704C0.168808 16.7354 0.319057 16.8174 0.522053 16.8174H3.99012Z" fill="white"/>
<path d="M19.9075 0H16.4107C16.0335 0 15.7237 0.217648 15.4822 0.652988C10.5197 9.45582 7.95128 14.0124 7.7771 14.3214L12.6959 23.3471C12.928 23.7823 13.2472 24 13.6535 24H17.1213C17.334 24 17.4889 23.9274 17.5856 23.7823C17.6821 23.6174 17.6775 23.4383 17.5712 23.2452L12.6962 14.3214V14.3073L20.3575 0.754575C20.4638 0.551623 20.4638 0.373091 20.3575 0.217914C20.2703 0.0725493 20.1203 0 19.9075 0Z" fill="white"/>
</svg>
