<svg width="24" height="25" viewBox="0 0 24 25" fill="none" xmlns="http://www.w3.org/2000/svg">
<path d="M17.812 5.33962H6.145C3.855 5.33962 2 7.17462 2 9.43862V15.2066C2 17.4706 3.856 19.3066 6.145 19.3066H17.812C20.102 19.3066 21.957 17.4706 21.957 15.2066V9.43862C21.957 7.17462 20.101 5.33862 17.812 5.33862V5.33962ZM15.009 12.6026L9.552 15.1776C9.51872 15.1936 9.48192 15.201 9.44503 15.199C9.40815 15.197 9.37237 15.1856 9.34103 15.1661C9.3097 15.1465 9.28382 15.1194 9.2658 15.0871C9.24779 15.0548 9.23822 15.0186 9.238 14.9816V9.67262C9.23867 9.6355 9.24872 9.59914 9.26722 9.56695C9.28573 9.53475 9.31208 9.50777 9.34382 9.4885C9.37556 9.46923 9.41167 9.45832 9.44877 9.45676C9.48587 9.45521 9.52276 9.46308 9.556 9.47962L15.014 12.2146C15.0504 12.2328 15.0809 12.2608 15.102 12.2954C15.1232 12.3301 15.1341 12.3701 15.1336 12.4107C15.1331 12.4513 15.1211 12.491 15.0991 12.5251C15.077 12.5592 15.0458 12.5864 15.009 12.6036V12.6026Z" fill="white"/>
</svg>
